<svg version="1.1" id="Layer_1" xmlns="http://www.w3.org/2000/svg" x="0" y="0" viewBox="0 0 500 100" xml:space="preserve">
  <style>
    .st0{fill:#118f8c}.st1{fill:#045d63}.st3{fill:#f7ab42}
  </style>
  <path class="st0" d="M76.6 30.9l11.8 6.7.2 24.5-33.1-18.7z"/>
  <path class="st1" d="M150.7 60.3L87.8 24.7V0l84 47.8z"/>
  <path class="st0" d="M21.6 63.1l66.2-38.4V0L.5 50.6z"/>
  <path fill="#ce781b" d="M55 56.7l28.5 16v24.5L33.9 69.1z"/>
  <path class="st3" d="M142.7 68.4l-21.3-12.3-33.2 19.2-32-18v24.4l27.6 15.6 4.5 2.7z"/>
  <path class="st1" d="M88.9 62.2l-11.7-6.6-.3-24.6 33 18.8zM192.8 52.6v-36h21.8v4.7h-16.9v11.6H213v4.7h-15.3v15.2h-4.9zM221.1 15.5c1.9 0 3.5 1.6 3.5 3.5s-1.6 3.4-3.5 3.4-3.4-1.6-3.4-3.4c0-1.9 1.5-3.5 3.4-3.5zm-2.4 37.1V28.3h4.7v24.4h-4.7zM235.1 52.6h-4.8V28.3h4.7v3.5c1.8-3 4.7-4.2 7.5-4.2 5.8 0 8.7 4.2 8.7 9.7v15.5h-4.8V38.1c0-3.4-1.4-6.1-5.7-6.1-3.7 0-5.7 3-5.7 6.7l.1 13.9zM263.4 38.7l6.6-1c1.5-.2 1.9-1 1.9-1.8 0-2.4-1.6-4.4-5.3-4.4-3.4 0-5.2 2.1-5.5 4.9l-4.6-1.1c.5-4.7 4.7-7.9 10-7.9 7.3 0 10.1 4.2 10.1 8.9v12.3c0 2.1.2 3.4.3 4h-4.7c-.1-.6-.3-1.6-.3-3.3-1.1 1.7-3.5 4.1-7.9 4.1-5 0-8.2-3.5-8.2-7.3.2-4.4 3.4-6.8 7.6-7.4zm8.5 3.4V41l-7.5 1.1c-2 .3-3.5 1.5-3.5 3.7 0 1.8 1.6 3.5 3.9 3.5 4 .1 7.1-1.8 7.1-7.2zM287.6 52.6h-4.8V28.3h4.7v3.5c1.8-3 4.7-4.2 7.5-4.2 5.8 0 8.7 4.2 8.7 9.7v15.5h-4.8V38.1c0-3.4-1.4-6.1-5.7-6.1-3.7 0-5.7 3-5.7 6.7l.1 13.9zM312.9 40.4c0 5.6 3.5 8.6 7.5 8.6 4.6 0 6.3-3.1 6.8-5l4.2 1.8c-1.2 3.5-4.7 7.6-11 7.6-7.1 0-12.3-5.6-12.3-13 0-7.6 5.4-13 12.3-13 6.5 0 9.9 4.1 10.9 7.8L327 37c-.6-2.4-2.4-5.1-6.6-5.1-3.9 0-7.5 2.8-7.5 8.5zM356.7 45.7c-1.3 4.3-5.3 7.7-11 7.7-6.6 0-12.3-4.8-12.3-13 0-7.7 5.5-12.9 11.7-12.9 7.5 0 11.7 5.1 11.7 12.8 0 .6-.1 1.2-.1 1.6h-18.4c.1 4.4 3.2 7.4 7.3 7.4 3.9 0 5.9-2.2 6.8-4.9l4.3 1.3zm-4.8-7.8c-.1-3.5-2.4-6.3-6.7-6.3-4 0-6.4 3.1-6.6 6.3h13.3z"/>
  <path class="st3" d="M361.7 52.6v-36h7v29.2h16.1v6.7l-23.1.1zM412.7 40.2c0 7.7-5.6 13.2-13.1 13.2s-13.1-5.6-13.1-13.2S392.1 27 399.6 27s13.1 5.4 13.1 13.2zm-6.7 0c0-4.7-3-7.1-6.3-7.1s-6.3 2.4-6.3 7.1c0 4.7 3 7.1 6.3 7.1s6.3-2.4 6.3-7.1zM416.8 52.6V15.9h6.6v14.5c1.1-1.8 3.9-3.4 7.5-3.4 7.3 0 11.5 5.6 11.5 13 0 7.5-4.7 13.2-11.8 13.2-3.5 0-6.1-1.6-7.4-3.7v3l-6.4.1zm12.7-19.5c-3.4 0-6.3 2.5-6.3 7s2.8 7.1 6.3 7.1 6.2-2.5 6.2-7.1-2.7-7-6.2-7zM446.6 52.6V15.9h6.6v14.5c1.1-1.8 3.9-3.4 7.5-3.4 7.3 0 11.5 5.6 11.5 13 0 7.5-4.7 13.2-11.8 13.2-3.5 0-6.1-1.6-7.4-3.7v3l-6.4.1zm12.7-19.5c-3.4 0-6.3 2.5-6.3 7s2.8 7.1 6.3 7.1 6.2-2.5 6.2-7.1-2.7-7-6.2-7zM476.7 62.4l5.9-13L472 27.6h7.5l6.6 14.6 6.1-14.6h7.2l-15.6 34.8h-7.1z"/>
  <g>
    <path class="st0" d="M193 74.1c0-.8-.1-2.3-.1-2.8h1.3c0 .8.1 1.6.1 1.8h.1c.5-1.1 1.8-2 3.5-2 1.3 0 2.5.6 3 2.2.6-1.5 2-2.2 3.5-2.2 3.2 0 3.9 2.1 3.9 4.4v6H207v-5.9c0-1.6-.5-3.2-2.5-3.2-2.4 0-3 2-3 3.5v5.7h-1.3v-6.1c0-1.8-.7-3.1-2.1-3.1-2 0-3.5 1.3-3.5 4.2v5.1h-1.3l-.3-7.6zM222.6 79.4c-1.1 1.6-2.6 2.2-4.4 2.2-3.1 0-5.1-2.2-5.1-5.4 0-3 2.1-5.3 5.1-5.3 3.1 0 4.7 2.4 4.7 4.7v.9h-8.5c0 1.1.8 3.8 3.8 3.8 1.3 0 2.7-.7 3.4-1.8l1 .9zm-1-3.9c0-1.8-1.6-3.3-3.5-3.3-2.9 0-3.7 2.7-3.7 3.3h7.2zM236.9 79.4c-1.1 1.6-2.6 2.2-4.4 2.2-3.1 0-5.1-2.2-5.1-5.4 0-3 2.1-5.3 5.1-5.3 3.1 0 4.7 2.4 4.7 4.7v.9h-8.5c0 1.1.8 3.8 3.8 3.8 1.3 0 2.7-.7 3.4-1.8l1 .9zm-1-3.9c0-1.8-1.6-3.3-3.5-3.3-2.9 0-3.7 2.7-3.7 3.3h7.2zM247.3 72.4h-2.9V79c0 .9.5 1.4 1.4 1.4.5 0 1.1-.1 1.5-.4l.1 1.2c-.5.1-1.2.4-1.7.4-1.9 0-2.6-1.1-2.6-2.6v-6.6h-2.2v-1.2h2.2v-2.9h1.3v2.9h2.9v1.2zM262.5 84.5c-.5 1.3-1.3 2.1-2.7 2.1-.4 0-.8-.1-1.3-.2l.1-1.2c.4.1.8.2 1.2.2 1 0 1.4-.9 1.7-1.7l.9-2.3-4.1-10.1h1.5l3.3 8.5 3.2-8.5h1.4l-5.2 13.2zM276.7 71c3.1 0 5.3 2.3 5.3 5.3 0 3.1-2.2 5.3-5.3 5.3-3.1 0-5.3-2.3-5.3-5.3.1-3.1 2.2-5.3 5.3-5.3zm0 9.4c2.5 0 4-1.8 4-4.2 0-2.3-1.6-4.2-4-4.2-2.5 0-4 1.8-4 4.2 0 2.4 1.6 4.2 4 4.2zM295.7 78.5c0 .8.1 2.3.1 2.8h-1.3c0-.8-.1-1.6-.1-1.8h-.1c-.5 1.1-1.8 2-3.5 2-3.2 0-3.9-2.1-3.9-4.4v-6h1.3V77c0 1.6.5 3.2 2.5 3.2s3.5-1.3 3.5-4.2v-5.1h1.3l.2 7.6zM301.5 74.1c0-.8-.1-2.3-.1-2.8h1.3c0 .8.1 1.6.1 1.8.6-1.2 1.7-2 3.2-2 .3 0 .5.1.8.1l-.1 1.3c-.2-.1-.4-.1-.5-.1-2.3 0-3.3 1.6-3.3 3.5v5.5h-1.3l-.1-7.3zM327.6 79.6c-.8 1.4-2.6 2-4.1 2-3.1 0-5.3-2.3-5.3-5.3 0-3.1 2.2-5.3 5.3-5.3 1.5 0 3.2.6 4 2h.1v-8.2h1.3v16.5h-1.3v-1.7zm-4.1-7.4c-2.5 0-4 1.8-4 4.2 0 2.3 1.6 4.2 4 4.2s4.2-1.8 4.2-4.2c.1-2.4-1.8-4.2-4.2-4.2zM343.3 79.4c-1.1 1.6-2.6 2.2-4.4 2.2-3.1 0-5.1-2.2-5.1-5.4 0-3 2.1-5.3 5.1-5.3 3.1 0 4.7 2.4 4.7 4.7v.9h-8.5c0 1.1.8 3.8 3.8 3.8 1.3 0 2.7-.7 3.4-1.8l1 .9zm-1-3.9c0-1.8-1.6-3.3-3.5-3.3-2.9 0-3.7 2.7-3.7 3.3h7.2zM356.5 77.1c0 2 .1 3.1.2 4.2h-1.2c-.1-.5-.1-1.1-.1-1.6h-.1c-.8 1.3-1.8 1.9-3.5 1.9s-3.6-.8-3.6-3c0-3.1 3.6-3.4 5.6-3.4h1.6v-.6c0-1.8-1.2-2.5-2.8-2.5-1.2 0-2.2.4-3.1 1.1l-.8-.9c1-.9 2.5-1.4 3.9-1.4 2.5 0 4 1.1 4 3.7l-.1 2.5zm-2.6-.8c-2.2 0-4.4.6-4.4 2.3 0 1.3 1.2 1.9 2.3 1.9 2.8 0 3.5-1.8 3.5-3.5v-.7h-1.4zM362.4 64.8h1.3v16.5h-1.3V64.8zM369.6 78.8c.6 1.1 1.8 1.7 3 1.7 1.1 0 2.3-.7 2.3-1.8 0-2.7-6-.8-6-4.7 0-2 1.8-2.9 3.5-2.9 1.6 0 2.9.6 3.6 1.9l-1.2.7c-.5-.9-1.2-1.4-2.4-1.4-.9 0-2.1.6-2.1 1.6 0 2.7 6 .6 6 4.7 0 2-1.7 3.1-3.7 3.1-1.7 0-3.3-.6-4.1-2l1.1-.9zM382.2 79.4c.6 0 1.1.5 1.1 1.1s-.5 1.1-1.1 1.1c-.6 0-1.1-.5-1.1-1.1s.5-1.1 1.1-1.1z"/>
  </g>
</svg>