<svg xmlns="http://www.w3.org/2000/svg" xmlns:xlink="http://www.w3.org/1999/xlink" viewBox="0 0 400.78 108.25"><defs><style>.cls-1{fill:none;}.cls-2{fill:#045d63;}.cls-3{fill:#118f8c;}.cls-4{clip-path:url(#clip-path);}.cls-5{fill:#f7ab42;}</style><clipPath id="clip-path"><polygon class="cls-1" points="86.13 54.13 37.1 108.25 37.1 54.12 86.13 0 86.13 54.13"/></clipPath></defs><g id="Layer_2" data-name="Layer 2"><g id="Layer_1-2" data-name="Layer 1"><path class="cls-2" d="M169.07,88.5V50.18h11.17v4.4c1.93-3.39,6.86-5.55,11-5.55,5.47,0,9.4,2.23,11.33,6,3-4.32,6.71-6,11.87-6,7.25,0,14.18,4.24,14.18,14.65V88.5H217.32V66.3c0-3.63-1.92-6.48-6.09-6.48a6.23,6.23,0,0,0-6.4,6.55V88.5H193.27V66.3c0-3.63-1.93-6.48-6.17-6.48-4.08,0-6.32,3.16-6.32,6.63v22Z"/><path class="cls-2" d="M237.36,88.5V33.84h19.81c16.42,0,27.45,10.49,27.45,27.37s-11,27.29-27.52,27.29ZM256.63,77c8.41,0,15.27-4.86,15.27-15.8S265,45.33,256.63,45.33h-7.09V77Z"/><path class="cls-2" d="M299.65,66.37l9-1.38c2.09-.31,2.78-1.31,2.78-2.63,0-2.23-1.93-4.16-5.63-4.16a6.17,6.17,0,0,0-6.55,5.63l-10.18-2.08c.47-5.48,5.55-12.72,16.81-12.72,12.41,0,17,6.94,17,14.8V82.56a37.5,37.5,0,0,0,.46,5.94H312.75a18.47,18.47,0,0,1-.39-4.32c-2,3.24-5.7,5.4-10.79,5.4-8.4,0-13.26-5.55-13.26-11.64C288.31,71.15,293.32,67.3,299.65,66.37Zm11.79,7.1v-1.7l-7.25,1.16c-2.46.38-4.31,1.54-4.31,4.24,0,2,1.31,3.93,4.54,3.93C307.89,81.1,311.44,79.4,311.44,73.47Z"/><path class="cls-2" d="M337.57,75.85c.15,2.63,2,5.17,6,5.17,3,0,4.47-1.62,4.47-3.31,0-1.39-.92-2.55-3.77-3.17l-4.4-1c-8.17-1.77-11.41-6.4-11.41-11.79,0-7,6.17-12.72,14.73-12.72,11.1,0,14.95,6.94,15.34,11.41l-9.72,1.77c-.3-2.54-1.92-4.7-5.47-4.7-2.23,0-4.16,1.31-4.16,3.31,0,1.62,1.31,2.55,3,2.86l5.08,1c7.94,1.62,11.8,6.4,11.8,12,0,6.55-5,13-15.27,13-12,0-15.88-7.78-16.18-12Z"/><path class="cls-2" d="M376.5,88.5H364.78V32.69H376.5v20c2.39-2.39,6.4-3.47,9.79-3.47,10,0,14.49,6.86,14.49,15.27v24H389.06v-22c0-3.78-2-6.63-6.24-6.63-3.7,0-6.09,2.62-6.32,6.17Z"/><polygon class="cls-3" points="86.13 54.13 37.1 108.25 37.1 54.12 86.13 0 86.13 54.13"/><polygon class="cls-2" points="86.13 54.13 135.16 108.25 135.16 54.12 86.13 0 86.13 54.13"/><g class="cls-4"><polygon class="cls-2" points="65.2 54.13 16.16 108.25 16.16 54.12 65.2 0 65.2 54.13"/></g><polygon class="cls-5" points="49.03 54.13 0 108.25 0 54.12 49.03 0 49.03 54.13"/></g></g></svg>
